<svg width="64" height="64" viewBox="0 0 64 64" fill="none" xmlns="http://www.w3.org/2000/svg">
  <!-- Simplified Logo for Favicon -->
  <g transform="translate(32, 28) scale(0.4)">
    <!-- Central Petal -->
    <path d="M0 -80 C15 -40 25 -10 0 10 C-25 -10 -15 -40 0 -80Z" fill="#1D9E75"/>
    
    <!-- Inner Petals -->
    <path d="M10 -65 C40 -45 50 -10 10 5 C30 -5 30 -35 10 -65Z" fill="#1D9E75"/>
    <path d="M-10 -65 C-40 -45 -50 -10 -10 5 C-30 -5 -30 -35 -10 -65Z" fill="#1D9E75"/>
    
    <!-- Outer Petals -->
    <path d="M20 -40 C70 -20 80 20 20 25 C50 15 55 -10 20 -40Z" fill="#1D9E75"/>
    <path d="M-20 -40 C-70 -20 -80 20 -20 25 C-50 15 -55 -10 -20 -40Z" fill="#1D9E75"/>
  </g>
  
  <!-- Sweeping Base Curve -->
  <path d="M10 35 C10 45 54 45 54 35 C54 42 20 42 10 35Z" fill="#1D9E75"/>
</svg>